<svg viewBox="0 0 12.8516 12.8242" fill="none" xmlns="http://www.w3.org/2000/svg" xmlns:xlink="http://www.w3.org/1999/xlink" x="0" y="0"><path id="Icon" d="M0.0274,9.3517h8.75v1.1h-8.75zM8.7774,8.1517h-8.7774c0,-0.9 0.3008,-1.6 0.9024,-2.2c0.6015,-0.6 1.3307,-1 2.1875,-1.1c0.8567,-0.2 1.7181,-0.2 2.5839,0c0.8659,0.1 1.5997,0.5 2.2012,1.1c0.6016,0.6 0.9024,1.3 0.9024,2.2zM0,12.2517v-0.6h8.7774v0.6c0,0.2 -0.0593,0.3 -0.1778,0.4c-0.1185,0.1 -0.2597,0.2 -0.4238,0.2h-7.5742c-0.1641,0 -0.3054,-0.1 -0.4238,-0.2c-0.1185,-0.1 -0.1778,-0.2 -0.1778,-0.4zM9.9531,12.8517v-4.7c0,-1.2 -0.4739,-2.2 -1.4218,-3.1c-0.5651,-0.6 -1.3946,-1 -2.4883,-1.3l-0.1641,-1.4h2.8985v-2.4h1.1484v2.4h2.9258l-0.9844,9.6c-0.0365,0.3 -0.1413,0.5 -0.3144,0.6c-0.1732,0.2 -0.3783,0.3 -0.6153,0.3z" fill="currentColor"/></svg>